<?xml version="1.0" encoding="iso-8859-1"?>
<!-- Generator: Adobe Illustrator 19.0.0, SVG Export Plug-In . SVG Version: 6.00 Build 0)  -->
<svg version="1.1" id="Layer_1" xmlns="http://www.w3.org/2000/svg" xmlns:xlink="http://www.w3.org/1999/xlink" x="0px" y="0px"
	 viewBox="0 0 473.935 473.935" style="enable-background:new 0 0 473.935 473.935;" xml:space="preserve">
<circle style="fill:#344E5D;" cx="236.967" cy="236.967" r="236.967"/>
<path style="fill:#717171;" d="M117.481,236.956c0,54.301,36.232,100.108,85.829,114.645
	c-20.778-33.261-32.819-72.538-32.819-114.645c0-42.103,12.045-81.376,32.819-114.637
	C153.709,136.856,117.481,182.663,117.481,236.956z"/>
<radialGradient id="SVGID_1_" cx="20.5492" cy="528.3893" r="28.6089" gradientTransform="matrix(3.7418 0 0 -3.7418 186.5668 2214.0767)" gradientUnits="userSpaceOnUse">
	<stop  offset="0.818" style="stop-color:#D8D5DB"/>
	<stop  offset="1" style="stop-color:#D8D5DB"/>
</radialGradient>
<path style="fill:url(#SVGID_1_);" d="M203.306,351.597c10.679,3.128,21.961,4.838,33.646,4.838
	c65.986,0,119.475-53.496,119.475-119.483c0-65.983-53.489-119.475-119.475-119.475c-11.686,0-22.971,1.71-33.646,4.838
	c-20.778,33.261-32.819,72.535-32.819,114.637C170.487,279.059,182.532,318.34,203.306,351.597z"/>
<g>
</g>
<g>
</g>
<g>
</g>
<g>
</g>
<g>
</g>
<g>
</g>
<g>
</g>
<g>
</g>
<g>
</g>
<g>
</g>
<g>
</g>
<g>
</g>
<g>
</g>
<g>
</g>
<g>
</g>
</svg>
