<?xml version="1.0" encoding="iso-8859-1"?>
<!-- Generator: Adobe Illustrator 18.0.0, SVG Export Plug-In . SVG Version: 6.00 Build 0)  -->
<!DOCTYPE svg PUBLIC "-//W3C//DTD SVG 1.1//EN" "http://www.w3.org/Graphics/SVG/1.1/DTD/svg11.dtd">
<svg version="1.1" id="Capa_1" xmlns="http://www.w3.org/2000/svg" xmlns:xlink="http://www.w3.org/1999/xlink" x="0px" y="0px"
	 viewBox="0 0 370 370" style="enable-background:new 0 0 370 370;" xml:space="preserve">
<g>
	<path d="M360.511,332.338v-19.409h-14.753V151.935h5.171v-23.279h10.517V98.603L185,6.149L8.555,98.603v30.053h10.517v23.279h5.171
		v160.994H9.489v19.409H0v31.513h370v-31.513H360.511z M98.892,312.929h-51.73V151.935h51.73V312.929z M173.54,312.929h-51.729
		V151.935h51.729V312.929z M248.189,312.929H196.46V151.935h51.729V312.929z M322.838,312.929h-51.73V151.935h51.73V312.929z
		 M342.783,109.994H27.217v-0.1L185,27.217l157.783,82.677V109.994z"/>
	<circle cx="185" cy="77.767" r="20.5"/>
</g>
<g>
</g>
<g>
</g>
<g>
</g>
<g>
</g>
<g>
</g>
<g>
</g>
<g>
</g>
<g>
</g>
<g>
</g>
<g>
</g>
<g>
</g>
<g>
</g>
<g>
</g>
<g>
</g>
<g>
</g>
</svg>
