<?xml version="1.0" encoding="iso-8859-1"?>
<!-- Generator: Adobe Illustrator 19.0.0, SVG Export Plug-In . SVG Version: 6.00 Build 0)  -->
<svg version="1.1" id="Layer_1" xmlns="http://www.w3.org/2000/svg" xmlns:xlink="http://www.w3.org/1999/xlink" x="0px" y="0px"
	 viewBox="0 0 488 488" style="enable-background:new 0 0 488 488;" xml:space="preserve">
<circle style="fill:#FFC114;" cx="244" cy="244" r="158.4"/>
<path style="fill:#FCA12A;" d="M356,132c61.6,61.6,61.6,161.6,0,224c-61.6,61.6-161.6,61.6-224,0"/>
<polygon style="fill:#FFC114;" points="205.6,68 244,0 282.4,68 "/>
<polygon style="fill:#FCA12A;" points="247.2,68 244,0 282.4,68 "/>
<polygon style="fill:#FFC114;" points="282.4,420 244,488 205.6,420 "/>
<polygon style="fill:#FCA12A;" points="240.8,420 244,488 205.6,420 "/>
<polygon style="fill:#FFC114;" points="420,205.6 488,244 420,282.4 "/>
<polygon style="fill:#FCA12A;" points="420,247.2 488,244 420,282.4 "/>
<polygon style="fill:#FFC114;" points="68,282.4 0,244 68,205.6 "/>
<polygon style="fill:#FCA12A;" points="68,240.8 0,244 68,205.6 "/>
<polygon style="fill:#FFC114;" points="344,89.6 419.2,68.8 398.4,144 "/>
<polygon style="fill:#FCA12A;" points="373.6,119.2 419.2,68.8 398.4,144 "/>
<polygon style="fill:#FFC114;" points="144,398.4 68.8,419.2 89.6,344 "/>
<polygon style="fill:#FCA12A;" points="114.4,368.8 68.8,419.2 89.6,344 "/>
<polygon style="fill:#FFC114;" points="398.4,344 419.2,419.2 344,398.4 "/>
<polygon style="fill:#FCA12A;" points="368.8,373.6 419.2,419.2 344,398.4 "/>
<polygon style="fill:#FFC114;" points="89.6,144 68.8,68.8 144,89.6 "/>
<polygon style="fill:#FCA12A;" points="119.2,114.4 68.8,68.8 144,89.6 "/>
<g>
</g>
<g>
</g>
<g>
</g>
<g>
</g>
<g>
</g>
<g>
</g>
<g>
</g>
<g>
</g>
<g>
</g>
<g>
</g>
<g>
</g>
<g>
</g>
<g>
</g>
<g>
</g>
<g>
</g>
</svg>
